<?xml version="1.0" standalone="no"?>
<!DOCTYPE svg PUBLIC "-//W3C//DTD SVG 20010904//EN"
 "http://www.w3.org/TR/2001/REC-SVG-20010904/DTD/svg10.dtd">
<svg version="1.0" xmlns="http://www.w3.org/2000/svg"
 width="70.000000pt" height="70.000000pt" viewBox="0 0 70.000000 70.000000"
 preserveAspectRatio="xMidYMid meet">
<metadata>
Created by potrace 1.11, written by Peter Selinger 2001-2013
</metadata>
<g transform="translate(0.000000,70.000000) scale(0.100000,-0.100000)"
fill="#000000" stroke="none">
<path d="M570 494 c-52 -31 -141 -83 -197 -116 -92 -54 -103 -63 -116 -101 -7
-22 -18 -42 -23 -44 -5 -2 -51 21 -101 51 -101 60 -103 59 -103 -26 0 -36 2
-38 98 -95 53 -32 103 -57 109 -57 7 1 10 -2 7 -7 -8 -14 -14 -12 -126 55 -60
35 -108 61 -108 58 0 -4 49 -37 108 -73 92 -56 112 -64 131 -55 16 7 28 6 42
-2 10 -7 25 -12 32 -12 23 0 60 48 60 79 0 25 10 34 81 76 l81 47 32 -18 c29
-15 37 -15 58 -4 26 14 41 50 36 83 -1 9 5 20 13 23 11 4 16 19 16 49 0 47
-20 145 -29 145 -3 -1 -49 -26 -101 -56z m70 -208 c-17 -22 -32 -9 -19 16 8
14 14 17 22 9 7 -7 6 -15 -3 -25z m-570 -27 c0 -5 -4 -9 -10 -9 -5 0 -10 7
-10 16 0 8 5 12 10 9 6 -3 10 -10 10 -16z m125 -37 c-3 -3 -11 0 -18 7 -9 10
-8 11 6 5 10 -3 15 -9 12 -12z m13 -41 c3 -8 -1 -12 -9 -9 -7 2 -15 10 -17 17
-3 8 1 12 9 9 7 -2 15 -10 17 -17z m152 -39 c0 -5 -6 -16 -13 -27 -10 -13 -16
-15 -21 -6 -4 6 -2 18 4 26 13 16 30 20 30 7z"/>
</g>
</svg>
